<svg width="18" height="18" viewBox="0 0 18 18" fill="none" xmlns="http://www.w3.org/2000/svg">
<path d="M15.12 3.4575C14.3237 2.661 13.268 2.17674 12.1449 2.09278C11.0218 2.00882 9.90581 2.33074 8.99996 3C8.0457 2.29023 6.85796 1.96838 5.6759 2.09928C4.49385 2.23017 3.40529 2.80408 2.62944 3.70544C1.85359 4.60679 1.44808 5.76864 1.49456 6.95701C1.54105 8.14538 2.03608 9.272 2.87996 10.11L8.46746 15.6975C8.53718 15.7678 8.62014 15.8236 8.71153 15.8617C8.80292 15.8997 8.90095 15.9193 8.99996 15.9193C9.09897 15.9193 9.197 15.8997 9.28839 15.8617C9.37979 15.8236 9.46274 15.7678 9.53246 15.6975L15.12 10.11C15.557 9.67329 15.9036 9.15475 16.1401 8.58402C16.3766 8.01329 16.4984 7.40155 16.4984 6.78375C16.4984 6.16595 16.3766 5.55421 16.1401 4.98347C15.9036 4.41274 15.557 3.8942 15.12 3.4575ZM14.0625 9.0525L8.99996 14.1075L3.93746 9.0525C3.49134 8.60452 3.18744 8.03478 3.06388 7.41475C2.94033 6.79472 3.00261 6.15201 3.24293 5.56724C3.48324 4.98248 3.89089 4.48169 4.41472 4.12771C4.93856 3.77374 5.55526 3.58233 6.18746 3.5775C7.03205 3.57957 7.84129 3.91675 8.43746 4.515C8.50718 4.58529 8.59014 4.64109 8.68153 4.67917C8.77292 4.71724 8.87095 4.73685 8.96996 4.73685C9.06897 4.73685 9.167 4.71724 9.2584 4.67917C9.34979 4.64109 9.43274 4.58529 9.50246 4.515C10.1162 3.98316 10.9091 3.70436 11.7206 3.73502C12.5322 3.76568 13.3017 4.10351 13.8736 4.68014C14.4455 5.25677 14.7769 6.02913 14.8008 6.84089C14.8247 7.65265 14.5394 8.44319 14.0025 9.0525H14.0625Z" fill="white"/>
</svg>
