<svg width="12" height="12" viewBox="0 0 12 12" fill="none" xmlns="http://www.w3.org/2000/svg">
<circle cx="6" cy="6" r="6" fill="#FB2E86"/>
<path d="M8.62266 4.5777C8.61943 4.33534 8.57406 4.09539 8.48858 3.86858C8.41445 3.67727 8.30123 3.50353 8.15616 3.35845C8.01108 3.21337 7.83733 3.10015 7.64602 3.02602C7.42213 2.94198 7.1856 2.89653 6.9465 2.89162C6.63866 2.87786 6.54106 2.87402 5.75962 2.87402C4.97818 2.87402 4.87802 2.87402 4.57242 2.89162C4.33343 2.89657 4.09701 2.94201 3.87322 3.02602C3.68188 3.1001 3.50811 3.2133 3.36302 3.35839C3.21794 3.50347 3.10474 3.67724 3.03066 3.86858C2.94645 4.09231 2.9011 4.32878 2.89658 4.56778C2.88282 4.87594 2.87866 4.97354 2.87866 5.75498C2.87866 6.53642 2.87866 6.63626 2.89658 6.94218C2.90138 7.18154 2.9465 7.4177 3.03066 7.64202C3.10486 7.83331 3.21815 8.00701 3.36328 8.15203C3.50841 8.29705 3.6822 8.41021 3.87354 8.48426C4.09672 8.57169 4.33318 8.62038 4.57274 8.62826C4.8809 8.64202 4.9785 8.64618 5.75994 8.64618C6.54138 8.64618 6.64154 8.64618 6.94714 8.62826C7.18623 8.62355 7.42278 8.57822 7.64666 8.49418C7.83792 8.41997 8.01162 8.30672 8.15669 8.16165C8.30176 8.01659 8.41501 7.84288 8.48922 7.65162C8.57338 7.42762 8.6185 7.19146 8.6233 6.95178C8.63706 6.64394 8.64122 6.54634 8.64122 5.76458C8.64058 4.98314 8.64058 4.88394 8.62266 4.5777ZM5.7577 7.23274C4.94042 7.23274 4.27834 6.57066 4.27834 5.75338C4.27834 4.9361 4.94042 4.27402 5.7577 4.27402C6.15005 4.27402 6.52633 4.42988 6.80377 4.70732C7.0812 4.98475 7.23706 5.36103 7.23706 5.75338C7.23706 6.14573 7.0812 6.52201 6.80377 6.79945C6.52633 7.07688 6.15005 7.23274 5.7577 7.23274ZM7.29594 4.56426C7.1049 4.56426 6.95098 4.41002 6.95098 4.2193C6.95098 4.17402 6.9599 4.12919 6.97723 4.08735C6.99456 4.04552 7.01995 4.00751 7.05197 3.97549C7.08399 3.94348 7.122 3.91808 7.16383 3.90075C7.20567 3.88342 7.2505 3.8745 7.29578 3.8745C7.34106 3.8745 7.3859 3.88342 7.42773 3.90075C7.46956 3.91808 7.50757 3.94348 7.53959 3.97549C7.57161 4.00751 7.59701 4.04552 7.61434 4.08735C7.63166 4.12919 7.64058 4.17402 7.64058 4.2193C7.64058 4.41002 7.48634 4.56426 7.29594 4.56426Z" fill="white"/>
<path d="M5.75759 6.71416C6.28832 6.71416 6.71855 6.28392 6.71855 5.7532C6.71855 5.22247 6.28832 4.79224 5.75759 4.79224C5.22687 4.79224 4.79663 5.22247 4.79663 5.7532C4.79663 6.28392 5.22687 6.71416 5.75759 6.71416Z" fill="white"/>
</svg>
