<svg width="12" height="12" viewBox="0 0 12 12" fill="none" xmlns="http://www.w3.org/2000/svg">
<circle cx="6" cy="6" r="6" fill="#151875"/>
<g clip-path="url(#clip0_7_3747)">
<path d="M9.48589 3.49978C9.21869 3.61818 8.93165 3.69818 8.62989 3.73434C8.94125 3.54803 9.17419 3.25481 9.28525 2.90938C8.99272 3.08314 8.67256 3.20544 8.33869 3.27098C8.11417 3.03126 7.81679 2.87236 7.49271 2.81897C7.16864 2.76558 6.836 2.82067 6.54645 2.9757C6.25689 3.13073 6.02662 3.37701 5.89138 3.67632C5.75614 3.97563 5.7235 4.31122 5.79853 4.63098C5.20579 4.60122 4.62593 4.44715 4.09659 4.17879C3.56724 3.91042 3.10024 3.53375 2.72589 3.07322C2.59789 3.29402 2.52429 3.55002 2.52429 3.82266C2.52415 4.0681 2.58459 4.30978 2.70025 4.52625C2.81591 4.74273 2.98322 4.92731 3.18733 5.06362C2.95062 5.05609 2.71913 4.99213 2.51213 4.87706V4.89626C2.51211 5.2405 2.63118 5.57414 2.84915 5.84058C3.06712 6.10701 3.37055 6.28984 3.70797 6.35802C3.48838 6.41745 3.25816 6.4262 3.03469 6.38362C3.12989 6.67981 3.31533 6.93883 3.56505 7.12439C3.81477 7.30996 4.11626 7.4128 4.42733 7.4185C3.89928 7.83303 3.24713 8.05789 2.57581 8.0569C2.45689 8.05693 2.33808 8.04998 2.21997 8.0361C2.9014 8.47423 3.69464 8.70676 4.50477 8.70586C7.24717 8.70586 8.74637 6.4345 8.74637 4.46458C8.74637 4.40058 8.74477 4.33594 8.74189 4.27194C9.0335 4.06105 9.28522 3.79991 9.48525 3.50074L9.48589 3.49978Z" fill="white"/>
</g>
<defs>
<clipPath id="clip0_7_3747">
<rect width="7.68" height="7.68" fill="white" transform="translate(1.91992 1.92001)"/>
</clipPath>
</defs>
</svg>
